<svg xmlns="http://www.w3.org/2000/svg" xmlns:xlink="http://www.w3.org/1999/xlink" version="1.1" width="1000" height="1000" viewBox="0 0 1000 1000" xml:space="preserve">
<desc>Created with Fabric.js 3.5.0</desc>
<defs>
</defs>
<rect x="0" y="0" width="100%" height="100%" fill="#ffffff"/>
<g transform="matrix(21.7669 0 0 21.7669 496.8553 496.8553)" id="201042">
<g style="" vector-effect="non-scaling-stroke">
		<g transform="matrix(1 0 0 1 0 3)" id="Outline_asal">
<path style="stroke: none; stroke-width: 1; stroke-dasharray: none; stroke-linecap: butt; stroke-dashoffset: 0; stroke-linejoin: miter; stroke-miterlimit: 4; is-custom-font: none; font-file-url: none; fill: rgb(0,0,0); fill-rule: nonzero; opacity: 1;" transform=" translate(-32, -35)" d="M 36 47 H 20 a 1 1 0 0 1 -1 -1 V 24 a 1 1 0 0 1 1 -1 h 7.875 A 10.0517 10.0517 0 0 1 32 23.8906 A 10.0517 10.0517 0 0 1 36.125 23 H 44 a 1 1 0 0 1 1 1 V 38 A 9.01 9.01 0 0 1 36 47 Z M 21 45 H 36 a 7.0085 7.0085 0 0 0 7 -7 V 25 H 36.125 a 8.0416 8.0416 0 0 0 -3.5781 0.8447 l -0.1 0.05 a 1.0008 1.0008 0 0 1 -0.8946 0 l -0.1 -0.05 A 8.0416 8.0416 0 0 0 27.875 25 H 21 Z" stroke-linecap="round"/>
</g>
		<g transform="matrix(1 0 0 1 -4.5 0.5)" id="Outline_asal">
<path style="stroke: none; stroke-width: 1; stroke-dasharray: none; stroke-linecap: butt; stroke-dashoffset: 0; stroke-linejoin: miter; stroke-miterlimit: 4; is-custom-font: none; font-file-url: none; fill: rgb(0,0,0); fill-rule: nonzero; opacity: 1;" transform=" translate(-27.5, -32.5)" d="M 27.5 38 A 5.5 5.5 0 1 1 33 32.5 A 5.5069 5.5069 0 0 1 27.5 38 Z m 0 -9 A 3.5 3.5 0 1 0 31 32.5 A 3.5042 3.5042 0 0 0 27.5 29 Z" stroke-linecap="round"/>
</g>
		<g transform="matrix(1 0 0 1 4.5 0.5)" id="Outline_asal">
<path style="stroke: none; stroke-width: 1; stroke-dasharray: none; stroke-linecap: butt; stroke-dashoffset: 0; stroke-linejoin: miter; stroke-miterlimit: 4; is-custom-font: none; font-file-url: none; fill: rgb(0,0,0); fill-rule: nonzero; opacity: 1;" transform=" translate(-36.5, -32.5)" d="M 36.5 38 A 5.5 5.5 0 1 1 42 32.5 A 5.5069 5.5069 0 0 1 36.5 38 Z m 0 -9 A 3.5 3.5 0 1 0 40 32.5 A 3.5042 3.5042 0 0 0 36.5 29 Z" stroke-linecap="round"/>
</g>
		<g transform="matrix(1 0 0 1 4 0.5)" id="Outline_asal">
<circle style="stroke: none; stroke-width: 1; stroke-dasharray: none; stroke-linecap: butt; stroke-dashoffset: 0; stroke-linejoin: miter; stroke-miterlimit: 4; is-custom-font: none; font-file-url: none; fill: rgb(0,0,0); fill-rule: nonzero; opacity: 1;" cx="0" cy="0" r="1"/>
</g>
		<g transform="matrix(1 0 0 1 4 0.5)" id="Outline_asal">
<path style="stroke: none; stroke-width: 1; stroke-dasharray: none; stroke-linecap: butt; stroke-dashoffset: 0; stroke-linejoin: miter; stroke-miterlimit: 4; is-custom-font: none; font-file-url: none; fill: rgb(0,0,0); fill-rule: nonzero; opacity: 1;" transform=" translate(-36, -32.5)" d="M 36 34.5 a 2 2 0 1 1 2 -2 A 2.0027 2.0027 0 0 1 36 34.5 Z m 0 -2.002 v 0 Z" stroke-linecap="round"/>
</g>
		<g transform="matrix(1 0 0 1 -4 0.5)" id="Outline_asal">
<circle style="stroke: none; stroke-width: 1; stroke-dasharray: none; stroke-linecap: butt; stroke-dashoffset: 0; stroke-linejoin: miter; stroke-miterlimit: 4; is-custom-font: none; font-file-url: none; fill: rgb(0,0,0); fill-rule: nonzero; opacity: 1;" cx="0" cy="0" r="1"/>
</g>
		<g transform="matrix(1 0 0 1 -4 0.5)" id="Outline_asal">
<path style="stroke: none; stroke-width: 1; stroke-dasharray: none; stroke-linecap: butt; stroke-dashoffset: 0; stroke-linejoin: miter; stroke-miterlimit: 4; is-custom-font: none; font-file-url: none; fill: rgb(0,0,0); fill-rule: nonzero; opacity: 1;" transform=" translate(-28, -32.5)" d="M 28 34.5 a 2 2 0 1 1 2 -2 A 2.0027 2.0027 0 0 1 28 34.5 Z m 0 -2.002 v 0 Z" stroke-linecap="round"/>
</g>
		<g transform="matrix(1 0 0 1 0 6)" id="Outline_asal">
<path style="stroke: none; stroke-width: 1; stroke-dasharray: none; stroke-linecap: butt; stroke-dashoffset: 0; stroke-linejoin: miter; stroke-miterlimit: 4; is-custom-font: none; font-file-url: none; fill: rgb(0,0,0); fill-rule: nonzero; opacity: 1;" transform=" translate(-32, -38)" d="M 32 41 a 0.9967 0.9967 0 0 1 -0.707 -0.293 l -2 -2 A 0.9993 0.9993 0 0 1 29 38 a 3 3 0 0 1 6 0 a 0.9993 0.9993 0 0 1 -0.293 0.707 l -2 2 A 0.9967 0.9967 0 0 1 32 41 Z m -0.9365 -3.3506 L 32 38.5859 l 0.9365 -0.9365 a 1 1 0 0 0 -1.873 0 Z" stroke-linecap="round"/>
</g>
		<g transform="matrix(1 0 0 1 0 -11.5)" id="Outline_asal">
<path style="stroke: none; stroke-width: 1; stroke-dasharray: none; stroke-linecap: butt; stroke-dashoffset: 0; stroke-linejoin: miter; stroke-miterlimit: 4; is-custom-font: none; font-file-url: none; fill: rgb(0,0,0); fill-rule: nonzero; opacity: 1;" transform=" translate(-32, -20.5)" d="M 38 24 H 36 V 23 a 4 4 0 0 0 -8 0 v 1 H 26 V 23 a 6 6 0 0 1 12 0 Z" stroke-linecap="round"/>
</g>
		<g transform="matrix(1 0 0 1 0 0)" id="Outline_asal">
<path style="stroke: none; stroke-width: 1; stroke-dasharray: none; stroke-linecap: butt; stroke-dashoffset: 0; stroke-linejoin: miter; stroke-miterlimit: 4; is-custom-font: none; font-file-url: none; fill: rgb(0,0,0); fill-rule: nonzero; opacity: 1;" transform=" translate(-32, -32)" d="M 49 54 H 15 a 5.0059 5.0059 0 0 1 -5 -5 V 15 a 5.0059 5.0059 0 0 1 5 -5 H 49 a 5.0059 5.0059 0 0 1 5 5 V 49 A 5.0059 5.0059 0 0 1 49 54 Z M 15 12 a 3.0033 3.0033 0 0 0 -3 3 V 49 a 3.0033 3.0033 0 0 0 3 3 H 49 a 3.0033 3.0033 0 0 0 3 -3 V 15 a 3.0033 3.0033 0 0 0 -3 -3 Z" stroke-linecap="round"/>
</g>
</g>
</g>
</svg>